<svg width="33" height="32" fill="none" xmlns="http://www.w3.org/2000/svg"><path d="M13.7 13.424a1.782 1.782 0 000 3.552 1.7 1.7 0 001.636-1.776 1.696 1.696 0 00-1.636-1.776zm5.84 0a1.782 1.782 0 101.636 1.776 1.7 1.7 0 00-1.632-1.776h-.004z" fill="#fff"/><path d="M27.32 0H5.88A3.288 3.288 0 002.6 3.3v21.628a3.288 3.288 0 003.28 3.3h18.144l-.848-2.96 2.048 1.9 1.936 1.792L30.6 32V3.3A3.288 3.288 0 0027.32 0zm-6.176 20.9s-.576-.688-1.056-1.3a5.049 5.049 0 002.9-1.9 9.16 9.16 0 01-1.84.944 10.53 10.53 0 01-2.32.688c-1.37.252-2.776.247-4.144-.016a13.436 13.436 0 01-2.352-.688 9.603 9.603 0 01-1.832-.948 4.976 4.976 0 002.8 1.888c-.48.608-1.072 1.328-1.072 1.328a5.8 5.8 0 01-4.88-2.432c.05-3.243.837-6.433 2.3-9.328a7.912 7.912 0 014.5-1.68l.16.192A10.795 10.795 0 0010.1 9.744s.352-.192.944-.464a12.015 12.015 0 013.636-1.008c.09-.019.18-.03.272-.032 1.072-.14 2.157-.15 3.232-.032 1.69.193 3.326.715 4.816 1.536a10.648 10.648 0 00-3.984-2.032l.224-.256a7.91 7.91 0 014.5 1.68 21.426 21.426 0 012.3 9.328 5.848 5.848 0 01-4.896 2.436z" fill="#fff"/></svg>