<svg xmlns="http://www.w3.org/2000/svg" width="164" height="46" fill="none"><path fill="url(#paint0_linear)" fill-rule="evenodd" d="M.797.294H19.99V.25h30.552v.043H164V19.79h-8.802L164 23.084v22.629h-49.951v-.043h-12.936v.043H81.658v-.043H31.35v.043H.797V.293zM62.675 38.61v-5.337H51.578V7.353h-5.337V38.61h16.434zM24.291 12.732v-5.38H7.857v19.95l11.097 4.151v1.864h-5.76v-1.78H7.857v7.117H24.29V27.98l-11.098-4.15V12.731H24.29zm2.758 25.88h16.434V7.31H27.049v31.3zm5.337-5.338h5.76V12.69h-5.76v20.584zM64.4 38.611h5.336V21.966h5.76V38.61h5.337V7.353H64.4V38.61zm11.097-22.11v-3.727h-5.76v3.728h5.76zm13.22 22.152h5.337v-25.92h5.548v-5.38H83.168v5.38h5.549v25.922zm13.199-.042h5.336V21.966h5.761V38.61h5.336V7.353h-16.433V38.61zm11.097-22.11v-3.727h-5.761v3.728h5.761zm8.095 22.152h5.337V23.83h2.626l3.303 14.825h5.379L134.45 23.83h3.092V7.353h-16.434v31.3zm19.399-7.115v7.116h16.434V27.98l-11.097-4.15V12.731h11.097v-5.38h-16.434v19.95l11.097 4.151v1.864h-5.76v-1.78h-5.337zm-14.062-13.046h5.76v-5.675h-5.76v5.675z" clip-rule="evenodd"/><defs><linearGradient id="paint0_linear" x1="2.845" x2="164.069" y1="33.716" y2="32.92" gradientUnits="userSpaceOnUse"><stop stop-color="#016DB0"/><stop offset="1" stop-color="#01FFCA"/></linearGradient></defs></svg>